<?xml version="1.0" encoding="utf-8"?>
<!-- Generator: Adobe Illustrator 19.0.0, SVG Export Plug-In . SVG Version: 6.00 Build 0)  -->
<svg version="1.1" xmlns="http://www.w3.org/2000/svg" xmlns:xlink="http://www.w3.org/1999/xlink" x="0px" y="0px" width="24.9px"
	 height="20.1px" viewBox="0 0 24.9 20.1" style="enable-background:new 0 0 24.9 20.1;" xml:space="preserve">
<style type="text/css">
	.st0{fill:none;stroke:#00B4E1;stroke-width:0.7438;stroke-miterlimit:10;}
	.st1{fill:#00B4E1;}
	.st2{fill:none;stroke:#00B4E1;stroke-width:0.4959;stroke-miterlimit:10;}
</style>
<g id="Layer_1">
	<g>
		<path class="st0" d="M22.7,12.8H1.1L3.4,1.6l21.1,2.2L22.7,12.8z M1.7,12.3h20.5l1.6-8L3.8,2.1L1.7,12.3z"/>
	</g>
	<polygon class="st1" points="3.7,2 1.6,2 2.1,0 4.2,0 	"/>
	<g>
		<polygon class="st0" points="20.6,15.3 1.1,15.3 1.6,12.7 1.1,12.8 0.5,15.8 20.4,15.8 		"/>
	</g>
</g>
<g id="Layer_2">
	<g>
		<path class="st2" d="M17.8,19.8c-0.7,0-1.2-0.5-1.2-1.2c0-0.7,0.5-1.2,1.2-1.2S19,18,19,18.6C19,19.3,18.5,19.8,17.8,19.8z
			 M17.8,17.8c-0.4,0-0.8,0.4-0.8,0.8c0,0.4,0.4,0.8,0.8,0.8s0.8-0.4,0.8-0.8C18.6,18.2,18.2,17.8,17.8,17.8z"/>
	</g>
	<g>
		<path class="st2" d="M2.5,19.8c-0.7,0-1.2-0.5-1.2-1.2c0-0.7,0.5-1.2,1.2-1.2s1.2,0.5,1.2,1.2C3.7,19.3,3.2,19.8,2.5,19.8z
			 M2.5,17.8c-0.4,0-0.8,0.4-0.8,0.8c0,0.4,0.4,0.8,0.8,0.8c0.4,0,0.8-0.4,0.8-0.8C3.3,18.2,3,17.8,2.5,17.8z"/>
	</g>
</g>
</svg>
