<?xml version="1.0" encoding="utf-8"?>
<!-- Generator: Adobe Illustrator 19.0.0, SVG Export Plug-In . SVG Version: 6.00 Build 0)  -->
<svg version="1.1" id="Layer_1" xmlns="http://www.w3.org/2000/svg" xmlns:xlink="http://www.w3.org/1999/xlink" x="0px" y="0px"
	 width="632.4px" height="194.2px" viewBox="0 0 632.4 194.2" style="enable-background:new 0 0 632.4 194.2;" xml:space="preserve"
	>
<style type="text/css">
	.st0{clip-path:url(#SVGID_2_);}
	.st1{clip-path:url(#SVGID_2_);fill:#00B3E0;}
	.st2{clip-path:url(#SVGID_4_);}
</style>
<rect x="120.9" y="49.3" width="25.7" height="97"/>
<g>
	<defs>
		<rect id="SVGID_1_" width="632.4" height="194.2"/>
	</defs>
	<clipPath id="SVGID_2_">
		<use xlink:href="#SVGID_1_"  style="overflow:visible;"/>
	</clipPath>
	<path class="st0" d="M253.9,128.3c-11,13.7-25.3,20.5-43.2,20.5c-7.5,0-14.3-1.3-20.5-3.8c-6.2-2.5-11.5-6-15.9-10.5
		c-4.4-4.5-7.9-9.8-10.3-16c-2.5-6.2-3.7-13-3.7-20.5c0-7.4,1.2-14.2,3.6-20.4c2.4-6.3,5.9-11.7,10.3-16.3c4.5-4.6,9.8-8.2,16-10.8
		c6.2-2.6,13-3.9,20.5-3.9c8.4,0,16.2,1.4,23.4,4.2c7.2,2.8,13.2,7.7,18.2,14.7l-17,17.2c-2.7-3.7-6-6.6-9.7-8.9
		c-3.8-2.2-8.1-3.3-12.9-3.3c-4.1,0-7.7,0.7-10.9,2c-3.2,1.4-5.9,3.2-8.1,5.7c-2.2,2.4-3.9,5.3-5,8.5c-1.2,3.2-1.7,6.8-1.7,10.5
		c0,3.9,0.6,7.5,1.8,10.8c1.2,3.3,2.9,6.2,5.2,8.6c2.2,2.4,4.9,4.3,8.1,5.7c3.1,1.4,6.7,2,10.5,2c5.6,0,10.2-1,13.7-3
		c3.5-2,7-5.1,10.4-9.4L253.9,128.3z"/>
	<path class="st0" d="M307.4,148.6c-7.3,0-14-1.3-20.1-3.9c-6.2-2.6-11.5-6.1-16-10.6c-4.5-4.5-8-9.9-10.5-16.1
		c-2.5-6.3-3.8-13.1-3.8-20.4c0-7.4,1.3-14.2,3.8-20.4c2.5-6.3,6-11.6,10.5-16.1c4.5-4.5,9.8-8,16-10.5c6.2-2.5,12.9-3.8,20.1-3.8
		c7.3,0,14,1.3,20.2,3.8c6.2,2.5,11.5,6,16,10.5c4.5,4.5,7.9,9.9,10.5,16.1c2.5,6.3,3.8,13.1,3.8,20.4c0,7.4-1.3,14.2-3.8,20.4
		c-2.5,6.3-6,11.6-10.5,16.1c-4.5,4.5-9.8,8-16,10.6C321.4,147.4,314.6,148.6,307.4,148.6 M307.4,124.5c3.8,0,7.1-0.7,10.1-2.1
		c3-1.4,5.5-3.3,7.5-5.7c2-2.4,3.6-5.3,4.7-8.6c1.1-3.3,1.6-6.8,1.6-10.5c0-3.7-0.5-7.2-1.6-10.5c-1.1-3.3-2.6-6.2-4.7-8.6
		c-2-2.4-4.5-4.3-7.5-5.7c-3-1.4-6.3-2.1-10.1-2.1c-3.8,0-7.1,0.7-10.1,2.1c-3,1.4-5.5,3.3-7.5,5.7c-2,2.4-3.6,5.3-4.7,8.6
		c-1.1,3.3-1.6,6.8-1.6,10.5c0,3.7,0.5,7.2,1.6,10.5c1.1,3.3,2.6,6.2,4.7,8.6c2,2.4,4.5,4.3,7.5,5.7
		C300.2,123.8,303.6,124.5,307.4,124.5"/>
	<polygon class="st0" points="358.4,49.3 386.5,49.3 408.3,116.8 428.6,49.3 456.1,49.3 420.8,146.3 393.6,146.3 	"/>
	<polygon class="st0" points="466.3,49.3 536.1,49.3 536.1,71.6 492,71.6 492,86.6 528.2,86.6 528.2,107.5 492,107.5 492,124.1 
		539.1,124.1 539.1,146.3 466.3,146.3 	"/>
	<path class="st0" d="M552.5,49.3h40.1c5.2,0,10,0.7,14.2,2c4.2,1.4,7.8,3.4,10.8,6c3,2.7,5.3,6,7,10c1.6,4,2.5,8.6,2.5,13.8
		c0,6.4-1.4,11.9-4.2,16.6c-2.8,4.7-6.5,8.5-11.2,11.3l20.8,37.2h-27.6l-16.4-33h-10.8v33h-25.1V49.3z M590.1,93.1
		c3.4,0,6.2-1,8.3-3.1c2.1-2.1,3.2-4.9,3.2-8.4c0-3.7-1-6.6-3.1-8.7c-2-2.1-4.9-3.2-8.6-3.2h-12.4v23.4H590.1z"/>
	<rect x="120.9" class="st1" width="25.7" height="25.7"/>
	<polygon class="st1" points="71.5,49.3 0,49.3 0,75.1 53.3,75.1 10.3,118.1 28.5,136.3 71.5,93.2 71.5,146.6 97.2,146.6 97.2,75.1 
		97.2,49.3 	"/>
</g>
<polygon points="121.8,170 126.1,170 131.3,179.4 136.3,170 140.7,170 141.6,189.9 137.1,189.9 136.5,176.9 132.4,184.7 130,184.7 
	125.7,177 125.2,189.9 120.9,189.9 "/>
<path d="M151,170h5l7.3,19.9h-4.9l-1.5-4.6h-7l-1.5,4.6h-4.7L151,170z M155.7,181.9l-2.4-7.5l-2.5,7.5H155.7z"/>
<polygon points="165.4,170 178.8,170 178.8,174.1 169.9,174.1 169.9,189.9 165.4,189.9 "/>
<path d="M184.8,170h5l7.3,19.9h-4.9l-1.5-4.6h-7l-1.5,4.6h-4.7L184.8,170z M189.6,181.9l-2.4-7.5l-2.5,7.5H189.6z"/>
<g>
	<defs>
		<rect id="SVGID_3_" width="632.4" height="194.2"/>
	</defs>
	<clipPath id="SVGID_4_">
		<use xlink:href="#SVGID_3_"  style="overflow:visible;"/>
	</clipPath>
	<path class="st2" d="M202.8,177.8h2.8c0.8,0,1.5-0.2,2-0.5c0.5-0.3,0.8-0.9,0.8-1.6c0-0.8-0.3-1.3-0.8-1.7
		c-0.5-0.4-1.2-0.6-2.1-0.6c-0.5,0-0.9,0.1-1.3,0.2c-0.4,0.1-0.8,0.3-1.1,0.5c-0.3,0.2-0.7,0.4-0.9,0.7c-0.3,0.3-0.6,0.5-0.8,0.8
		l-2.8-2.5c0.8-1.1,1.8-2,3.1-2.6c1.3-0.7,2.7-1,4.4-1c1,0,1.9,0.1,2.7,0.4c0.8,0.3,1.5,0.6,2.1,1.1c0.6,0.5,1.1,1.1,1.4,1.8
		c0.3,0.7,0.5,1.4,0.5,2.3c0,1.1-0.3,2.1-0.8,2.9c-0.6,0.8-1.3,1.4-2.3,1.7c1.2,0.3,2.1,0.9,2.8,1.7s1,1.9,1,3.2
		c0,1-0.2,1.8-0.6,2.5c-0.4,0.7-0.9,1.3-1.6,1.8c-0.7,0.5-1.5,0.9-2.4,1.1c-0.9,0.2-1.9,0.4-2.9,0.4c-1.8,0-3.4-0.3-4.7-1
		c-1.3-0.7-2.4-1.5-3.2-2.6l2.8-2.6c0.2,0.3,0.5,0.6,0.8,0.8c0.3,0.3,0.7,0.5,1,0.7c0.4,0.2,0.8,0.4,1.3,0.5c0.5,0.1,1,0.2,1.6,0.2
		c1,0,1.8-0.2,2.4-0.6c0.6-0.4,1-1.1,1-2c0-0.9-0.3-1.5-0.8-1.8c-0.6-0.3-1.2-0.5-2-0.5h-3.3V177.8z"/>
	<polygon class="st2" points="233.6,189.9 229.1,189.9 229.1,176.5 220.3,189.9 216.2,189.9 216.2,170 220.6,170 220.6,183.2 
		229.3,170 233.6,170 	"/>
	<polygon class="st2" points="237.3,170 241.8,170 241.8,177.6 250.4,177.6 250.4,170 254.9,170 254.9,189.9 250.4,189.9 
		250.4,181.7 241.8,181.7 241.8,189.9 237.3,189.9 	"/>
	<polygon class="st2" points="260.3,189.9 258.6,189.9 258.6,185.2 263.5,185.2 263.5,189.9 261,194.2 258.4,194.2 	"/>
	<path class="st2" d="M277.9,170h7.5c1.2,0,2.3,0.1,3.1,0.4c0.9,0.3,1.6,0.7,2.1,1.2c0.5,0.5,0.9,1,1.2,1.7c0.2,0.6,0.4,1.3,0.4,2
		c0,0.6-0.1,1.2-0.3,1.7c-0.2,0.5-0.5,0.9-0.8,1.3c-0.3,0.3-0.6,0.6-1,0.8c-0.3,0.2-0.6,0.3-0.9,0.4c0.3,0.1,0.7,0.3,1.2,0.4
		c0.5,0.2,0.9,0.5,1.3,0.9c0.4,0.4,0.8,0.9,1.1,1.5c0.3,0.6,0.4,1.3,0.4,2.1c0,1-0.2,1.9-0.6,2.6c-0.4,0.7-0.9,1.3-1.6,1.8
		c-0.7,0.5-1.5,0.8-2.5,1s-2,0.3-3.2,0.3h-7.5V170z M285,178c0.3,0,0.7,0,1-0.1c0.3-0.1,0.6-0.2,0.9-0.4c0.2-0.2,0.5-0.4,0.6-0.7
		c0.2-0.3,0.2-0.6,0.2-1.1c0-0.4-0.1-0.8-0.2-1.1c-0.2-0.3-0.4-0.5-0.6-0.7c-0.3-0.2-0.6-0.3-0.9-0.4c-0.3-0.1-0.7-0.1-1-0.1h-2.7
		v4.5H285z M285.3,186.5c0.3,0,0.7,0,1.1-0.1c0.4-0.1,0.8-0.2,1.1-0.3c0.3-0.2,0.6-0.4,0.9-0.8c0.2-0.3,0.3-0.8,0.3-1.4
		c0-0.5-0.1-1-0.3-1.3c-0.2-0.3-0.5-0.6-0.8-0.8c-0.3-0.2-0.7-0.3-1.1-0.4c-0.4-0.1-0.8-0.1-1.1-0.1h-2.9v5.2H285.3z"/>
	<path class="st2" d="M306.2,189.9h-4.5V170h4.5v7.7h1.3c0.8,0,1.4-0.2,1.8-0.5c0.5-0.4,0.9-0.9,1.3-1.6l2.9-5.5h5l-3.5,6.4
		c-0.5,0.9-1,1.5-1.5,2c-0.5,0.5-1.2,0.8-1.8,1.1c0.9,0.3,1.6,0.7,2.1,1.2c0.5,0.5,1,1.2,1.5,2l4.2,7.2H314l-3.2-5.9
		c-0.4-0.8-0.8-1.3-1.2-1.7c-0.4-0.4-1-0.6-1.8-0.6h-1.6V189.9z"/>
	<path class="st2" d="M329.8,190.4c-1.5,0-2.8-0.3-4.1-0.8c-1.3-0.5-2.4-1.3-3.3-2.2c-0.9-0.9-1.7-2-2.2-3.3
		c-0.5-1.3-0.8-2.7-0.8-4.1c0-1.5,0.3-2.9,0.8-4.2c0.5-1.3,1.3-2.4,2.2-3.3c0.9-0.9,2-1.7,3.3-2.2c1.3-0.5,2.6-0.8,4.1-0.8
		c1.5,0,2.8,0.3,4.1,0.8c1.3,0.5,2.4,1.3,3.3,2.2s1.7,2,2.2,3.3c0.5,1.3,0.8,2.7,0.8,4.2c0,1.5-0.3,2.9-0.8,4.1
		c-0.5,1.3-1.3,2.4-2.2,3.3c-0.9,0.9-2,1.7-3.3,2.2C332.7,190.2,331.3,190.4,329.8,190.4 M329.8,186.2c0.9,0,1.7-0.2,2.4-0.5
		c0.7-0.3,1.3-0.8,1.8-1.4c0.5-0.6,0.9-1.2,1.1-2c0.3-0.8,0.4-1.6,0.4-2.4c0-0.9-0.1-1.7-0.4-2.4c-0.3-0.8-0.6-1.4-1.1-2
		c-0.5-0.6-1.1-1-1.8-1.3c-0.7-0.3-1.5-0.5-2.4-0.5c-0.9,0-1.7,0.2-2.4,0.5s-1.3,0.8-1.8,1.3c-0.5,0.6-0.9,1.2-1.1,2
		c-0.3,0.8-0.4,1.6-0.4,2.4c0,0.9,0.1,1.7,0.4,2.4c0.3,0.8,0.6,1.4,1.1,2c0.5,0.6,1.1,1,1.8,1.4C328.1,186,328.9,186.2,329.8,186.2"
		/>
	<polygon class="st2" points="347.9,174 341.4,174 341.4,170 358.8,170 358.8,174 352.4,174 352.4,189.9 347.9,189.9 	"/>
	<path class="st2" d="M370.4,190.4c-1.5,0-2.8-0.3-4.1-0.8c-1.3-0.5-2.4-1.3-3.3-2.2c-0.9-0.9-1.7-2-2.2-3.3
		c-0.5-1.3-0.8-2.7-0.8-4.1c0-1.5,0.3-2.9,0.8-4.2c0.5-1.3,1.3-2.4,2.2-3.3c0.9-0.9,2-1.7,3.3-2.2c1.3-0.5,2.6-0.8,4.1-0.8
		c1.5,0,2.8,0.3,4.1,0.8c1.3,0.5,2.4,1.3,3.3,2.2s1.7,2,2.2,3.3c0.5,1.3,0.8,2.7,0.8,4.2c0,1.5-0.3,2.9-0.8,4.1
		c-0.5,1.3-1.3,2.4-2.2,3.3c-0.9,0.9-2,1.7-3.3,2.2C373.3,190.2,371.9,190.4,370.4,190.4 M370.4,186.2c0.9,0,1.7-0.2,2.4-0.5
		c0.7-0.3,1.3-0.8,1.8-1.4c0.5-0.6,0.9-1.2,1.1-2c0.3-0.8,0.4-1.6,0.4-2.4c0-0.9-0.1-1.7-0.4-2.4c-0.3-0.8-0.6-1.4-1.1-2
		c-0.5-0.6-1.1-1-1.8-1.3c-0.7-0.3-1.5-0.5-2.4-0.5c-0.9,0-1.7,0.2-2.4,0.5s-1.3,0.8-1.8,1.3c-0.5,0.6-0.9,1.2-1.1,2
		c-0.3,0.8-0.4,1.6-0.4,2.4c0,0.9,0.1,1.7,0.4,2.4c0.3,0.8,0.6,1.4,1.1,2c0.5,0.6,1.1,1,1.8,1.4C368.7,186,369.5,186.2,370.4,186.2"
		/>
	<path class="st2" d="M383.5,170h7.3c1.2,0,2.3,0.2,3.2,0.5c0.9,0.4,1.6,0.8,2.2,1.4c0.6,0.6,1,1.3,1.3,2c0.3,0.8,0.4,1.6,0.4,2.4
		c0,1.1-0.2,2-0.6,2.8c-0.4,0.8-0.9,1.5-1.5,2c-0.6,0.5-1.4,0.9-2.2,1.2c-0.8,0.3-1.7,0.4-2.6,0.4h-3.1v7h-4.4V170z M390.5,179.3
		c0.8,0,1.5-0.3,2-0.8c0.5-0.5,0.7-1.2,0.7-2c0-0.8-0.2-1.5-0.7-2c-0.5-0.5-1.2-0.8-2-0.8h-2.6v5.6H390.5z"/>
	<path class="st2" d="M410.2,190.4c-1.5,0-2.8-0.3-4.1-0.8c-1.3-0.5-2.4-1.3-3.3-2.2c-0.9-0.9-1.7-2-2.2-3.3
		c-0.5-1.3-0.8-2.7-0.8-4.1c0-1.5,0.3-2.9,0.8-4.2c0.5-1.3,1.3-2.4,2.2-3.3s2-1.7,3.3-2.2c1.3-0.5,2.6-0.8,4.1-0.8
		c1.5,0,2.8,0.3,4.1,0.8c1.3,0.5,2.4,1.3,3.3,2.2c0.9,0.9,1.7,2,2.2,3.3c0.5,1.3,0.8,2.7,0.8,4.2c0,1.5-0.3,2.9-0.8,4.1
		c-0.5,1.3-1.3,2.4-2.2,3.3c-0.9,0.9-2,1.7-3.3,2.2C413,190.2,411.6,190.4,410.2,190.4 M410.2,186.2c0.9,0,1.7-0.2,2.4-0.5
		c0.7-0.3,1.3-0.8,1.8-1.4c0.5-0.6,0.9-1.2,1.1-2c0.3-0.8,0.4-1.6,0.4-2.4c0-0.9-0.1-1.7-0.4-2.4c-0.3-0.8-0.6-1.4-1.1-2
		c-0.5-0.6-1.1-1-1.8-1.3s-1.5-0.5-2.4-0.5c-0.9,0-1.7,0.2-2.4,0.5c-0.7,0.3-1.3,0.8-1.8,1.3c-0.5,0.6-0.9,1.2-1.1,2
		c-0.3,0.8-0.4,1.6-0.4,2.4c0,0.9,0.1,1.7,0.4,2.4c0.3,0.8,0.6,1.4,1.1,2c0.5,0.6,1.1,1,1.8,1.4C408.5,186,409.3,186.2,410.2,186.2"
		/>
	<polygon class="st2" points="423.7,170 428,170 433.2,179.4 438.3,170 442.6,170 443.5,189.9 439,189.9 438.4,176.9 434.3,184.7 
		432,184.7 427.6,177 427.1,189.9 422.8,189.9 	"/>
	<path class="st2" d="M452.5,170h7.5c1.2,0,2.3,0.1,3.1,0.4c0.9,0.3,1.6,0.7,2.1,1.2c0.5,0.5,0.9,1,1.2,1.7c0.2,0.6,0.4,1.3,0.4,2
		c0,0.6-0.1,1.2-0.3,1.7c-0.2,0.5-0.5,0.9-0.8,1.3c-0.3,0.3-0.6,0.6-1,0.8c-0.4,0.2-0.6,0.3-0.9,0.4c0.3,0.1,0.7,0.3,1.2,0.4
		c0.5,0.2,0.9,0.5,1.3,0.9c0.4,0.4,0.8,0.9,1.1,1.5c0.3,0.6,0.4,1.3,0.4,2.1c0,1-0.2,1.9-0.6,2.6c-0.4,0.7-0.9,1.3-1.6,1.8
		c-0.7,0.5-1.5,0.8-2.5,1c-1,0.2-2,0.3-3.2,0.3h-7.5V170z M459.6,178c0.3,0,0.7,0,1-0.1c0.3-0.1,0.6-0.2,0.9-0.4
		c0.2-0.2,0.5-0.4,0.6-0.7s0.2-0.6,0.2-1.1c0-0.4-0.1-0.8-0.2-1.1s-0.4-0.5-0.6-0.7c-0.3-0.2-0.6-0.3-0.9-0.4
		c-0.3-0.1-0.7-0.1-1-0.1h-2.7v4.5H459.6z M459.8,186.5c0.3,0,0.7,0,1.1-0.1c0.4-0.1,0.8-0.2,1.1-0.3c0.3-0.2,0.6-0.4,0.9-0.8
		s0.3-0.8,0.3-1.4c0-0.5-0.1-1-0.3-1.3c-0.2-0.3-0.5-0.6-0.8-0.8c-0.3-0.2-0.7-0.3-1.1-0.4c-0.4-0.1-0.8-0.1-1.1-0.1h-2.9v5.2H459.8
		z"/>
	<path class="st2" d="M470.5,170h4.4v6.7h2.7c1.1,0,2.1,0.1,2.9,0.4c0.9,0.3,1.6,0.7,2.3,1.3c0.6,0.6,1.1,1.3,1.5,2.1
		c0.3,0.8,0.5,1.7,0.5,2.8c0,1-0.2,1.8-0.4,2.6c-0.3,0.8-0.8,1.5-1.4,2.1c-0.6,0.6-1.4,1.1-2.3,1.4c-0.9,0.3-2,0.5-3.2,0.5h-6.9V170
		z M474.9,180.3v6h2.2c1,0,1.7-0.3,2.3-0.8c0.6-0.5,0.8-1.2,0.8-2.2c0-0.9-0.3-1.7-0.8-2.2c-0.6-0.5-1.3-0.8-2.3-0.8H474.9z
		 M487.5,170h4.5v19.9h-4.5V170z"/>
	<path class="st2" d="M513.8,170h4.7l-7.7,15.6c-0.8,1.6-1.6,2.8-2.6,3.6c-1,0.8-2.2,1.3-3.6,1.3c-0.9,0-1.7-0.1-2.3-0.4
		c-0.6-0.3-1.2-0.6-1.8-1l1.9-3.1c0.3,0.2,0.7,0.4,1,0.6c0.4,0.2,0.8,0.2,1.2,0.2c1,0,1.9-0.7,2.6-2l-7.4-14.7h4.9l4.6,10.1
		L513.8,170z"/>
	<path class="st2" d="M520.6,170h7.5c1.2,0,2.3,0.1,3.1,0.4c0.9,0.3,1.6,0.7,2.1,1.2c0.5,0.5,0.9,1,1.2,1.7c0.2,0.6,0.4,1.3,0.4,2
		c0,0.6-0.1,1.2-0.3,1.7c-0.2,0.5-0.5,0.9-0.8,1.3c-0.3,0.3-0.6,0.6-1,0.8c-0.4,0.2-0.6,0.3-0.9,0.4c0.3,0.1,0.7,0.3,1.2,0.4
		c0.5,0.2,0.9,0.5,1.3,0.9c0.4,0.4,0.8,0.9,1.1,1.5c0.3,0.6,0.4,1.3,0.4,2.1c0,1-0.2,1.9-0.6,2.6c-0.4,0.7-0.9,1.3-1.6,1.8
		c-0.7,0.5-1.5,0.8-2.5,1c-1,0.2-2,0.3-3.2,0.3h-7.5V170z M527.7,178c0.3,0,0.7,0,1-0.1c0.3-0.1,0.6-0.2,0.9-0.4
		c0.2-0.2,0.5-0.4,0.6-0.7c0.2-0.3,0.2-0.6,0.2-1.1c0-0.4-0.1-0.8-0.2-1.1c-0.2-0.3-0.4-0.5-0.6-0.7c-0.3-0.2-0.6-0.3-0.9-0.4
		c-0.3-0.1-0.7-0.1-1-0.1H525v4.5H527.7z M527.9,186.5c0.3,0,0.7,0,1.1-0.1c0.4-0.1,0.8-0.2,1.1-0.3c0.3-0.2,0.6-0.4,0.9-0.8
		s0.3-0.8,0.3-1.4c0-0.5-0.1-1-0.3-1.3c-0.2-0.3-0.5-0.6-0.8-0.8c-0.3-0.2-0.7-0.3-1.1-0.4c-0.4-0.1-0.8-0.1-1.1-0.1H525v5.2H527.9z
		"/>
	<polygon class="st2" points="538.6,170 552.3,170 552.3,173.9 543.1,173.9 543.1,177.8 550.2,177.8 550.2,181.7 543.1,181.7 
		543.1,186 552.9,186 552.9,189.9 538.6,189.9 	"/>
	<path class="st2" d="M555.7,170h7.3c1.2,0,2.3,0.2,3.2,0.5c0.9,0.4,1.6,0.8,2.2,1.4c0.6,0.6,1,1.3,1.3,2c0.3,0.8,0.4,1.6,0.4,2.4
		c0,1.1-0.2,2-0.6,2.8c-0.4,0.8-0.9,1.5-1.5,2c-0.6,0.5-1.4,0.9-2.2,1.2c-0.8,0.3-1.7,0.4-2.6,0.4h-3.1v7h-4.4V170z M562.7,179.3
		c0.8,0,1.5-0.3,2-0.8c0.5-0.5,0.7-1.2,0.7-2c0-0.8-0.2-1.5-0.7-2c-0.5-0.5-1.2-0.8-2-0.8h-2.6v5.6H562.7z"/>
	<polygon class="st2" points="572.5,170 586.1,170 586.1,173.9 577,173.9 577,177.8 584.1,177.8 584.1,181.7 577,181.7 577,186 
		586.8,186 586.8,189.9 572.5,189.9 	"/>
	<polygon class="st2" points="589.6,170 594.1,170 594.1,177.6 602.7,177.6 602.7,170 607.2,170 607.2,189.9 602.7,189.9 
		602.7,181.7 594.1,181.7 594.1,189.9 589.6,189.9 	"/>
	<path class="st2" d="M610.9,170h4.4v6.7h2.7c1.1,0,2.1,0.1,2.9,0.4c0.9,0.3,1.6,0.7,2.3,1.3c0.6,0.6,1.1,1.3,1.5,2.1
		c0.3,0.8,0.5,1.7,0.5,2.8c0,1-0.2,1.8-0.4,2.6c-0.3,0.8-0.8,1.5-1.4,2.1c-0.6,0.6-1.4,1.1-2.3,1.4c-0.9,0.3-2,0.5-3.2,0.5h-6.9V170
		z M615.3,180.3v6h2.2c1,0,1.7-0.3,2.3-0.8c0.6-0.5,0.8-1.2,0.8-2.2c0-0.9-0.3-1.7-0.8-2.2c-0.6-0.5-1.3-0.8-2.3-0.8H615.3z
		 M627.9,170h4.5v19.9h-4.5V170z"/>
</g>
</svg>
