<?xml version="1.0" encoding="utf-8"?>
<!-- Generator: Adobe Illustrator 19.0.0, SVG Export Plug-In . SVG Version: 6.00 Build 0)  -->
<svg version="1.1" id="Layer_1" xmlns="http://www.w3.org/2000/svg" xmlns:xlink="http://www.w3.org/1999/xlink" x="0px" y="0px"
	 width="24px" height="24px" viewBox="0 0 24 24" style="enable-background:new 0 0 24 24;" xml:space="preserve">
<style type="text/css">
	.st0{clip-path:url(#SVGID_2_);fill:#FFFFFF;}
	.st1{clip-path:url(#SVGID_4_);}
	.st2{clip-path:url(#SVGID_8_);fill:#FFFFFF;}
	.st3{fill:#FFFFFF;}
</style>
<g>
	<g id="body">
		<g>
			<defs>
				<path id="SVGID_1_" d="M9.6,13.8c-2.6,0.4-4.8,1.5-6,3c1.6,3,4.7,5.1,8.4,5.1s6.8-2.1,8.4-5.1c-1.2-1.5-3.4-2.6-6-3v-3.7H9.6
					V13.8z"/>
			</defs>
			<clipPath id="SVGID_2_">
				<use xlink:href="#SVGID_1_"  style="overflow:visible;"/>
			</clipPath>
			<rect x="-2.3" y="4.2" class="st0" width="28.6" height="23.7"/>
		</g>
	</g>
	<g id="shadow">
		<g>
			<defs>
				<path id="SVGID_3_" d="M14.4,13.4v-2.2H9.6v2.2c0.5,0.8,1.3,1.4,2.4,1.4S13.8,14.3,14.4,13.4z"/>
			</defs>
			<clipPath id="SVGID_4_">
				<use xlink:href="#SVGID_3_"  style="overflow:visible;"/>
			</clipPath>
			<g class="st1">
				<g>
					<defs>
						<rect id="SVGID_5_" x="9.6" y="11.3" width="4.7" height="3.5"/>
					</defs>
					<clipPath id="SVGID_6_">
						<use xlink:href="#SVGID_5_"  style="overflow:visible;"/>
					</clipPath>
					<g style="clip-path:url(#SVGID_6_);">
						
							<image style="overflow:visible;" width="20" height="15" xlink:href="268DC4F6.jpg"  transform="matrix(0.24 0 0 0.24 9.6349 11.285)">
						</image>
					</g>
				</g>
			</g>
		</g>
	</g>
	<g id="head">
		<g>
			<defs>
				<path id="SVGID_7_" d="M12,12.5c2.8,0,3.5-4,3.5-5.9S14,3,12,3S8.5,4.6,8.5,6.6S9.2,12.5,12,12.5z"/>
			</defs>
			<clipPath id="SVGID_8_">
				<use xlink:href="#SVGID_7_"  style="overflow:visible;"/>
			</clipPath>
			<rect x="2.5" y="-2.9" class="st2" width="18.9" height="21.3"/>
		</g>
	</g>
</g>
<g id="circle">
	<path class="st3" d="M12,1c6.1,0,11,4.9,11,11s-4.9,11-11,11S1,18.1,1,12S5.9,1,12,1 M12,0C5.4,0,0,5.4,0,12s5.4,12,12,12
		s12-5.4,12-12S18.6,0,12,0L12,0z"/>
</g>
</svg>
