<?xml version="1.0" encoding="utf-8"?>
<!-- Generator: Adobe Illustrator 19.0.0, SVG Export Plug-In . SVG Version: 6.00 Build 0)  -->
<svg version="1.1" id="Layer_1" xmlns="http://www.w3.org/2000/svg" xmlns:xlink="http://www.w3.org/1999/xlink" x="0px" y="0px"
	 width="100px" height="100px" viewBox="0 0 100 100" style="enable-background:new 0 0 100 100;" xml:space="preserve">
<style type="text/css">
	.st0{fill:#242424;}
</style>
<path class="st0" d="M86.8,19.4c-3.2,1.9-6.6,3.2-10.2,3.9c-6-6.4-16.1-6.7-22.6-0.7c-4.1,3.9-5.9,9.8-4.6,15.3
	c-12.9-0.6-24.9-6.7-33-16.7c-4.2,7.3-2,16.6,5,21.3c-2.5-0.1-5-0.8-7.2-2v0.2c0,7.6,5.4,14.2,12.8,15.7c-2.3,0.7-4.8,0.8-7.2,0.3
	c2.1,6.5,8.1,11,14.9,11.1C29,72.3,22,74.7,14.8,74.7c-1.3,0-2.5,0-3.8-0.2c7.3,4.7,15.8,7.2,24.5,7.2C64.9,81.7,81,57.4,81,36.2
	v-2.1c3.1-2.3,5.9-5.1,8-8.4c-2.9,1.3-6,2.1-9.2,2.5C83.1,26.3,85.6,23.1,86.8,19.4z"/>
</svg>
