<?xml version="1.0" encoding="utf-8"?>
<!-- Generator: Adobe Illustrator 19.0.0, SVG Export Plug-In . SVG Version: 6.00 Build 0)  -->
<svg version="1.1" id="Layer_1" xmlns="http://www.w3.org/2000/svg" xmlns:xlink="http://www.w3.org/1999/xlink" x="0px" y="0px"
	 width="100px" height="100px" viewBox="0 0 100 100" style="enable-background:new 0 0 100 100;" xml:space="preserve">
<style type="text/css">
	.st0{fill:#242424;}
</style>
<g>
	<path class="st0" d="M80.5,58.2c-6.5-6-5.7-5,2.2-15.5c4.8-6.4,6.7-10.3,6.1-12c-0.6-1.6-4.1-1.2-4.1-1.2L73,29.6
		c0,0-0.8-0.1-1.5,0.3c-0.7,0.3-1.1,1.2-1.1,1.2s-1.8,4.9-4.3,9.1c-5.2,8.9-7.2,9.3-8.1,8.8c-2-1.3-1.5-5.1-1.5-7.9
		c0-8.6,1.3-12.2-2.5-13.1c-1.2-0.3-2.2-0.5-5.4-0.5c-4.1-0.1-7.7,0-9.7,1c-1.4,0.7-2.4,2.1-1.8,2.2c0.8,0.2,2.6,0.5,3.5,1.8
		c1.2,1.6,1.2,5.3,1.2,5.3s0.7,10.1-1.6,11.4c-1.6,0.9-3.7-0.9-8.4-8.9c-2.4-4.1-4.2-8.6-4.2-8.6s-0.4-0.8-1-1.3
		c-0.7-0.5-1.8-0.7-1.8-0.7l-11.2,0.1c0,0-1.7,0.1-2.3,0.8c-0.5,0.7,0,2,0,2S20,53,29.9,63.3c9,9.4,19.3,8.8,19.3,8.8h4.7
		c0,0,1.4-0.1,2.1-0.9c0.6-0.7,0.6-2.1,0.6-2.1s-0.1-6.3,2.8-7.2c2.8-0.9,6.5,6,10.4,8.7c3,2,5.2,1.6,5.2,1.6l10.4-0.1
		c0,0,5.5-0.4,2.8-4.9C88,66.8,86.7,64,80.5,58.2z"/>
</g>
</svg>
